<svg xmlns="http://www.w3.org/2000/svg" viewBox="0 0 1280 340" font-family="Inter, system-ui, sans-serif">
  <defs>
    <marker id="arr" viewBox="0 0 10 10" refX="9" refY="5" markerWidth="8" markerHeight="8" orient="auto">
      <path d="M0,0 L10,5 L0,10 z" fill="#475569"/>
    </marker>
    <style>
      .h { font-size:15px; font-weight:700; fill:#0f172a; }
      .s { font-size:12px; fill:#475569; }
      .b { stroke:#cbd5e1; stroke-width:1.2; rx:10; ry:10; }
    </style>
  </defs>
  <rect width="1280" height="340" fill="#f8fafc"/>

  <rect x="40"   y="110" width="200" height="110" fill="#fee2e2" class="b"/>
  <text x="60"   y="148" class="h">1. Maquina detenida</text>
  <text x="60"   y="173" class="s">Sensor detecta gap</text>
  <text x="60"   y="190" class="s">&gt; 2 min sin ciclo</text>

  <rect x="280"  y="110" width="200" height="110" fill="#fef3c7" class="b"/>
  <text x="300"  y="148" class="h">2. Tablet alerta</text>
  <text x="300"  y="173" class="s">Vibra + sonido</text>
  <text x="300"  y="190" class="s">en la app Andon</text>

  <rect x="520"  y="110" width="220" height="110" fill="#ede9fe" class="b"/>
  <text x="540"  y="148" class="h">3. ML sugiere top-3</text>
  <text x="540"  y="173" class="s">LightGBM con contexto:</text>
  <text x="540"  y="190" class="s">hora, turno, alarma, duracion.</text>
  <text x="540"  y="207" class="s">→ probabilidades 70/20/10</text>

  <rect x="780"  y="110" width="220" height="110" fill="#dcfce7" class="b"/>
  <text x="800"  y="148" class="h">4. Operario confirma</text>
  <text x="800"  y="173" class="s">1 toque en pantalla</text>
  <text x="800"  y="190" class="s">— sin escribir nada</text>

  <rect x="1040" y="110" width="200" height="110" fill="#dbeafe" class="b"/>
  <text x="1060" y="148" class="h">5. Broker</text>
  <text x="1060" y="173" class="s">Evento al UNS</text>
  <text x="1060" y="190" class="s">→ ML reentrena</text>

  <path d="M240,165 L280,165"  stroke="#475569" fill="none" marker-end="url(#arr)"/>
  <path d="M480,165 L520,165"  stroke="#475569" fill="none" marker-end="url(#arr)"/>
  <path d="M740,165 L780,165"  stroke="#475569" fill="none" marker-end="url(#arr)"/>
  <path d="M1000,165 L1040,165" stroke="#475569" fill="none" marker-end="url(#arr)"/>

  <text x="640" y="280" font-size="14" fill="#0f172a" font-weight="700" text-anchor="middle">El operario nunca digita: solo confirma.</text>
  <text x="640" y="302" font-size="14" fill="#0f172a" font-weight="700" text-anchor="middle">Eso es lo que hace que el dato sea limpio y reentrenable.</text>
</svg>
