<svg xmlns="http://www.w3.org/2000/svg" viewBox="0 0 960 300" font-family="Inter, system-ui, sans-serif">
  <defs>
    <marker id="arr" viewBox="0 0 10 10" refX="9" refY="5" markerWidth="8" markerHeight="8" orient="auto">
      <path d="M0,0 L10,5 L0,10 z" fill="#475569"/>
    </marker>
    <style>
      .h { font-size:14px; font-weight:700; fill:#0f172a; }
      .s { font-size:11px; fill:#475569; }
      .b { stroke:#cbd5e1; stroke-width:1.2; rx:10; ry:10; }
    </style>
  </defs>
  <rect width="960" height="300" fill="#f8fafc"/>

  <rect x="20" y="100" width="170" height="100" fill="#fee2e2" class="b"/>
  <text x="40" y="135" class="h">1. Maquina detenida</text>
  <text x="40" y="158" class="s">Sensor detecta gap</text>
  <text x="40" y="173" class="s">&gt; 2 min sin ciclo</text>

  <rect x="220" y="100" width="170" height="100" fill="#fef3c7" class="b"/>
  <text x="240" y="135" class="h">2. Tablet alerta</text>
  <text x="240" y="158" class="s">Vibra + sonido</text>
  <text x="240" y="173" class="s">en la app Andon</text>

  <rect x="420" y="100" width="190" height="100" fill="#ede9fe" class="b"/>
  <text x="440" y="135" class="h">3. ML sugiere top-3</text>
  <text x="440" y="158" class="s">LightGBM con contexto:</text>
  <text x="440" y="173" class="s">hora, turno, alarma, dur.</text>
  <text x="440" y="188" class="s">→ probabilidades 70/20/10</text>

  <rect x="640" y="100" width="170" height="100" fill="#dcfce7" class="b"/>
  <text x="660" y="135" class="h">4. Operario confirma</text>
  <text x="660" y="158" class="s">1 toque en pantalla</text>
  <text x="660" y="173" class="s">— sin escribir nada</text>

  <rect x="840" y="100" width="100" height="100" fill="#dbeafe" class="b"/>
  <text x="860" y="135" class="h">5. Broker</text>
  <text x="860" y="158" class="s">Evento al UNS</text>
  <text x="860" y="173" class="s">→ ML reentrena</text>

  <path d="M190,150 L220,150" stroke="#475569" fill="none" marker-end="url(#arr)"/>
  <path d="M390,150 L420,150" stroke="#475569" fill="none" marker-end="url(#arr)"/>
  <path d="M610,150 L640,150" stroke="#475569" fill="none" marker-end="url(#arr)"/>
  <path d="M810,150 L840,150" stroke="#475569" fill="none" marker-end="url(#arr)"/>

  <text x="480" y="260" font-size="13" fill="#0f172a" font-weight="700">El operario nunca digita: solo confirma. Eso es lo que hace que el dato sea limpio y reentrenable.</text>
  <text x="480" y="260" font-size="13" fill="#0f172a" font-weight="700" text-anchor="middle"></text>
</svg>
